<?xml version="1.0" encoding="utf-8"?>
<!-- Generator: Adobe Illustrator 16.0.0, SVG Export Plug-In . SVG Version: 6.00 Build 0)  -->
<!DOCTYPE svg PUBLIC "-//W3C//DTD SVG 1.1//EN" "http://www.w3.org/Graphics/SVG/1.1/DTD/svg11.dtd">
<svg version="1.1" id="Capa_1" xmlns="http://www.w3.org/2000/svg" xmlns:xlink="http://www.w3.org/1999/xlink" x="0px" y="0px"
	 width="1062.293px" height="313.557px" viewBox="0 0 1062.293 313.557" enable-background="new 0 0 1062.293 313.557"
	 xml:space="preserve">
<g>
	<path fill="#002C68" d="M98.82,119.054L143.517,7.187h52.025l-78.648,184.161H79.767L2.341,7.187h52.023L98.82,119.054z"/>
	<path fill="#009DB2" d="M284.698,311.832h-47.871V7.187h47.871V311.832z"/>
	<path fill="#002C68" d="M446.393,54.573c-8.794-7.329-20.029-12.212-31.753-12.212c-8.791,0-20.515,5.127-20.515,15.386
		c0,10.747,12.945,14.9,21.248,17.584l12.21,3.665c25.649,7.572,45.433,20.517,45.433,50.315c0,18.319-4.396,37.126-19.052,49.585
		c-14.414,12.209-33.708,17.34-52.27,17.34c-23.205,0-45.917-7.818-64.724-21.008l20.515-38.59
		c11.968,10.502,26.137,19.052,42.5,19.052c11.233,0,23.201-5.619,23.201-18.563c0-13.433-18.803-18.072-29.062-21.005
		c-30.04-8.547-49.829-16.364-49.829-52.023c0-37.37,26.625-61.795,63.507-61.795c18.562,0,41.278,5.862,57.644,15.144
		L446.393,54.573z"/>
	<path fill="#002C68" d="M684.784,7.187v103.561c0,23.692-0.973,47.14-19.293,64.971c-15.39,15.143-39.565,20.518-61.065,20.518
		c-21.488,0-45.67-5.375-61.06-20.518c-18.318-17.831-19.298-41.278-19.298-64.971V7.187h47.876v96.967
		c0,23.937,1.708,50.069,32.481,50.069c30.779,0,32.487-26.132,32.487-50.069V7.187H684.784z"/>
	<path fill="#002C68" d="M781.707,159.354l-12.702,31.994h-50.802L789.034,7.187h52.267l69.365,184.161h-51.045l-11.966-31.994
		H781.707z M815.167,64.098h-0.486l-19.785,58.618h39.814L815.167,64.098z"/>
	<path fill="#002C68" d="M1002.754,150.804h57.405v40.543H954.883V7.187h47.871V150.804z"/>
	<g>
		<path fill="#002C68" d="M382.533,266.014c-3.795-3.369-8.993-5.199-13.982-5.199c-11.873,0-20.937,9.906-20.937,21.643
			c0,11.592,8.993,21.498,20.795,21.498c5.2,0,10.187-1.969,14.124-5.48v7.8c-4.076,2.387-9.275,3.721-13.913,3.721
			c-15.104,0-27.61-12.013-27.61-27.329c0-15.666,12.575-27.893,28.173-27.893c4.638,0,9.343,1.125,13.351,3.583V266.014z"/>
		<path fill="#002C68" d="M457.629,282.383c0,15.74-12.437,27.612-27.752,27.612c-15.317,0-27.754-11.872-27.754-27.612
			c0-15.174,12.577-27.609,27.754-27.609C445.051,254.773,457.629,267.209,457.629,282.383z M451.025,282.383
			c0-11.662-8.712-21.427-21.148-21.427s-21.148,9.765-21.148,21.427c0,12.088,9.695,21.43,21.148,21.43
			C441.328,303.812,451.025,294.471,451.025,282.383z"/>
		<path fill="#002C68" d="M488.461,273.885h-0.14l-6.182,34.986h-6.815l10.818-55.222l18.198,41.732l18.196-41.732l10.823,55.222
			h-6.818l-6.179-34.986h-0.144l-15.878,36.11L488.461,273.885z"/>
		<path fill="#002C68" d="M560.396,255.898v31.266c0,8.64,2.601,16.648,12.79,16.648c10.184,0,12.783-8.009,12.783-16.648v-31.266
			h6.604v33.514c0,11.662-7.232,20.583-19.388,20.583s-19.394-8.921-19.394-20.583v-33.514H560.396z"/>
		<path fill="#002C68" d="M616.52,253.369l39.768,41.662v-39.133h6.604v55.15l-39.767-41.662v39.484h-6.604V253.369z"/>
		<path fill="#002C68" d="M694.144,308.871h-6.604v-52.973h6.604V308.871z"/>
		<path fill="#002C68" d="M758.072,266.014c-3.795-3.369-8.988-5.199-13.979-5.199c-11.878,0-20.94,9.906-20.94,21.643
			c0,11.592,8.995,21.498,20.799,21.498c5.199,0,10.19-1.969,14.12-5.48v7.8c-4.072,2.387-9.271,3.721-13.911,3.721
			c-15.105,0-27.612-12.013-27.612-27.329c0-15.666,12.581-27.893,28.18-27.893c4.633,0,9.339,1.125,13.344,3.583V266.014z"/>
		<path fill="#002C68" d="M788.912,295.592l-6.044,13.279h-7.097l25.296-55.222l25.289,55.222h-7.091l-6.043-13.279H788.912z
			 M801.067,268.124l-9.413,21.431h18.826L801.067,268.124z"/>
		<path fill="#002C68" d="M884.803,266.014c-3.796-3.369-8.995-5.199-13.985-5.199c-11.872,0-20.934,9.906-20.934,21.643
			c0,11.592,8.994,21.498,20.792,21.498c5.199,0,10.189-1.969,14.127-5.48v7.8c-4.079,2.387-9.279,3.721-13.911,3.721
			c-15.106,0-27.612-12.013-27.612-27.329c0-15.666,12.574-27.893,28.173-27.893c4.639,0,9.346,1.125,13.351,3.583V266.014z"/>
		<path fill="#002C68" d="M914.508,308.871h-6.604v-52.973h6.604V308.871z"/>
		<path fill="#002C68" d="M991.652,282.383c0,15.74-12.439,27.612-27.754,27.612c-15.316,0-27.754-11.872-27.754-27.612
			c0-15.174,12.573-27.609,27.754-27.609C979.071,254.773,991.652,267.209,991.652,282.383z M985.048,282.383
			c0-11.662-8.711-21.427-21.149-21.427c-12.439,0-21.15,9.765-21.15,21.427c0,12.088,9.697,21.43,21.15,21.43
			C975.351,303.812,985.048,294.471,985.048,282.383z M973.312,242.055l-11.521,10.471l-3.093-1.898l8.778-11.662L973.312,242.055z"
			/>
		<path fill="#002C68" d="M1012.855,253.369l39.768,41.662v-39.133h6.604v55.15l-39.768-41.662v39.484h-6.604V253.369z"/>
	</g>
</g>
</svg>
