<?xml version="1.0" standalone="no"?>
<!DOCTYPE svg PUBLIC "-//W3C//DTD SVG 20010904//EN"
 "http://www.w3.org/TR/2001/REC-SVG-20010904/DTD/svg10.dtd">
<svg version="1.0" xmlns="http://www.w3.org/2000/svg"
 width="914.000000pt" height="914.000000pt" viewBox="0 0 914.000000 914.000000"
 preserveAspectRatio="xMidYMid meet">
<metadata>
Created by potrace 1.11, written by Peter Selinger 2001-2013
</metadata>
<g transform="translate(0.000000,914.000000) scale(0.100000,-0.100000)"
fill="#000000" stroke="none">
<path d="M378 9132 c-28 -3 -35 -12 -21 -26 4 -3 12 -21 18 -39 7 -17 67 -162
134 -322 68 -159 163 -387 212 -505 50 -118 96 -228 104 -245 7 -16 54 -127
103 -245 50 -118 155 -370 235 -560 80 -190 150 -358 157 -375 7 -16 19 -43
26 -60 22 -52 274 -656 316 -755 21 -52 45 -108 53 -125 7 -16 66 -156 130
-310 115 -275 127 -304 158 -375 8 -19 25 -60 37 -90 12 -30 28 -68 35 -85 20
-44 185 -439 319 -760 65 -154 125 -298 135 -320 10 -22 45 -104 77 -182 l59
-143 556 0 557 0 97 228 c53 125 103 241 110 257 8 17 104 244 215 505 324
762 460 1081 486 1138 13 29 24 55 24 58 0 3 11 29 24 58 13 29 54 124 91 212
37 87 73 173 80 189 17 38 137 319 395 925 111 261 215 507 232 545 16 39 36
84 43 100 7 17 73 170 145 340 126 295 160 375 180 420 72 162 229 540 225
543 -3 3 -1383 6 -1523 3 -22 -1 -35 -7 -39 -18 -3 -10 -268 -675 -589 -1478
-320 -803 -612 -1536 -648 -1630 -67 -169 -87 -217 -92 -212 -5 5 -84 204 -84
211 0 4 -9 28 -21 54 -33 77 -36 83 -73 177 -64 165 -385 975 -539 1360 -83
209 -152 385 -153 390 -1 6 -11 31 -22 55 -11 25 -32 77 -47 115 -42 109 -85
218 -95 240 -5 11 -66 164 -135 340 -165 420 -153 395 -184 396 -107 2 -1482
3 -1503 1z"/>
<path d="M7395 9132 l-30 -3 0 -4562 0 -4562 716 -3 716 -2 0 4565 0 4565 -21
1 c-81 2 -1357 3 -1381 1z"/>
</g>
</svg>
